<mxfile host="app.diagrams.net" modified="2023-06-28T19:04:35.293Z" agent="Mozilla/5.0 (Macintosh; Intel Mac OS X 10_15_7) AppleWebKit/537.36 (KHTML, like Gecko) Chrome/114.0.0.0 Safari/537.36" etag="yc46_-KVt8vYWfIDDmIt" version="21.5.1" type="device">
  <diagram name="Page-1" id="0783ab3e-0a74-02c8-0abd-f7b4e66b4bec">
    <mxGraphModel dx="1063" dy="544" grid="1" gridSize="10" guides="1" tooltips="1" connect="1" arrows="1" fold="1" page="1" pageScale="1" pageWidth="850" pageHeight="1100" background="none" math="0" shadow="0">
      <root>
        <mxCell id="0" />
        <mxCell id="1" parent="0" />
        <mxCell id="Xdv-hqoRkiYaUYqbsFT--18" value="" style="ellipse;whiteSpace=wrap;html=1;rounded=0;shadow=0;comic=0;labelBackgroundColor=none;strokeWidth=1;fillColor=#000000;fontFamily=Verdana;fontSize=12;align=center;" vertex="1" parent="1">
          <mxGeometry x="395" y="60" width="40" height="40" as="geometry" />
        </mxCell>
        <mxCell id="Xdv-hqoRkiYaUYqbsFT--38" value="&lt;font style=&quot;font-size: 24px;&quot;&gt;Kalibracja&lt;/font&gt;" style="text;html=1;strokeColor=none;fillColor=none;align=center;verticalAlign=middle;whiteSpace=wrap;rounded=0;" vertex="1" parent="1">
          <mxGeometry x="330" y="10" width="170" height="30" as="geometry" />
        </mxCell>
        <mxCell id="Xdv-hqoRkiYaUYqbsFT--39" value="" style="whiteSpace=wrap;html=1;rounded=0;shadow=0;comic=0;labelBackgroundColor=none;strokeWidth=1;fillColor=#000000;fontFamily=Verdana;fontSize=12;align=center;rotation=0;" vertex="1" parent="1">
          <mxGeometry x="346.5" y="260" width="147" height="10" as="geometry" />
        </mxCell>
        <mxCell id="Xdv-hqoRkiYaUYqbsFT--40" value="Oczekiwanie na wprowadzenie typu czujnika do kalibracji" style="rounded=1;whiteSpace=wrap;html=1;shadow=0;comic=0;labelBackgroundColor=none;strokeWidth=1;fontFamily=Verdana;fontSize=12;align=center;arcSize=50;" vertex="1" parent="1">
          <mxGeometry x="340" y="170" width="160" height="70" as="geometry" />
        </mxCell>
        <mxCell id="Xdv-hqoRkiYaUYqbsFT--42" value="" style="endArrow=classic;html=1;rounded=0;exitX=0.5;exitY=1;exitDx=0;exitDy=0;" edge="1" parent="1" source="Xdv-hqoRkiYaUYqbsFT--18">
          <mxGeometry width="50" height="50" relative="1" as="geometry">
            <mxPoint x="450" y="230" as="sourcePoint" />
            <mxPoint x="415" y="170" as="targetPoint" />
          </mxGeometry>
        </mxCell>
        <mxCell id="Xdv-hqoRkiYaUYqbsFT--44" value="" style="endArrow=classic;html=1;rounded=0;exitX=0.5;exitY=1;exitDx=0;exitDy=0;entryX=0.5;entryY=0;entryDx=0;entryDy=0;" edge="1" parent="1" source="Xdv-hqoRkiYaUYqbsFT--40" target="Xdv-hqoRkiYaUYqbsFT--39">
          <mxGeometry width="50" height="50" relative="1" as="geometry">
            <mxPoint x="510" y="360" as="sourcePoint" />
            <mxPoint x="560" y="310" as="targetPoint" />
          </mxGeometry>
        </mxCell>
        <mxCell id="Xdv-hqoRkiYaUYqbsFT--45" value="Został wybrany czujnik temperatury (DHT11)" style="rounded=1;whiteSpace=wrap;html=1;shadow=0;comic=0;labelBackgroundColor=none;strokeWidth=1;fontFamily=Verdana;fontSize=12;align=center;arcSize=50;" vertex="1" parent="1">
          <mxGeometry y="350" width="160" height="50" as="geometry" />
        </mxCell>
        <mxCell id="Xdv-hqoRkiYaUYqbsFT--46" value="Został wybrany czujnik wilgotności (DHT11)" style="rounded=1;whiteSpace=wrap;html=1;shadow=0;comic=0;labelBackgroundColor=none;strokeWidth=1;fontFamily=Verdana;fontSize=12;align=center;arcSize=50;" vertex="1" parent="1">
          <mxGeometry x="180" y="350" width="160" height="50" as="geometry" />
        </mxCell>
        <mxCell id="Xdv-hqoRkiYaUYqbsFT--47" value="Został wybrany czujnik ciśnienia atmosferycznego (BMP280-I2C)" style="rounded=1;whiteSpace=wrap;html=1;shadow=0;comic=0;labelBackgroundColor=none;strokeWidth=1;fontFamily=Verdana;fontSize=12;align=center;arcSize=50;" vertex="1" parent="1">
          <mxGeometry x="370" y="350" width="160" height="70" as="geometry" />
        </mxCell>
        <mxCell id="Xdv-hqoRkiYaUYqbsFT--48" value="Został wybrany czujnik promieniowania słonecznego (Waveshare 9537)" style="rounded=1;whiteSpace=wrap;html=1;shadow=0;comic=0;labelBackgroundColor=none;strokeWidth=1;fontFamily=Verdana;fontSize=12;align=center;arcSize=50;" vertex="1" parent="1">
          <mxGeometry x="555" y="350" width="160" height="70" as="geometry" />
        </mxCell>
        <mxCell id="Xdv-hqoRkiYaUYqbsFT--49" value="Został wybrany czujnik jakości powietrza (SQP40)" style="rounded=1;whiteSpace=wrap;html=1;shadow=0;comic=0;labelBackgroundColor=none;strokeWidth=1;fontFamily=Verdana;fontSize=12;align=center;arcSize=50;" vertex="1" parent="1">
          <mxGeometry x="745" y="350" width="160" height="70" as="geometry" />
        </mxCell>
        <mxCell id="Xdv-hqoRkiYaUYqbsFT--50" value="" style="endArrow=classic;html=1;rounded=0;entryX=0.75;entryY=0;entryDx=0;entryDy=0;exitX=0;exitY=0.75;exitDx=0;exitDy=0;" edge="1" parent="1" source="Xdv-hqoRkiYaUYqbsFT--39" target="Xdv-hqoRkiYaUYqbsFT--45">
          <mxGeometry width="50" height="50" relative="1" as="geometry">
            <mxPoint x="460" y="280" as="sourcePoint" />
            <mxPoint x="510" y="230" as="targetPoint" />
            <Array as="points">
              <mxPoint x="240" y="320" />
              <mxPoint x="120" y="320" />
            </Array>
          </mxGeometry>
        </mxCell>
        <mxCell id="Xdv-hqoRkiYaUYqbsFT--51" value="" style="endArrow=classic;html=1;rounded=0;entryX=0.5;entryY=0;entryDx=0;entryDy=0;exitX=0.25;exitY=1;exitDx=0;exitDy=0;" edge="1" parent="1" source="Xdv-hqoRkiYaUYqbsFT--39" target="Xdv-hqoRkiYaUYqbsFT--46">
          <mxGeometry width="50" height="50" relative="1" as="geometry">
            <mxPoint x="380" y="350" as="sourcePoint" />
            <mxPoint x="430" y="300" as="targetPoint" />
          </mxGeometry>
        </mxCell>
        <mxCell id="Xdv-hqoRkiYaUYqbsFT--52" value="" style="endArrow=classic;html=1;rounded=0;exitX=0.5;exitY=1;exitDx=0;exitDy=0;entryX=0.309;entryY=-0.006;entryDx=0;entryDy=0;entryPerimeter=0;" edge="1" parent="1" source="Xdv-hqoRkiYaUYqbsFT--39" target="Xdv-hqoRkiYaUYqbsFT--47">
          <mxGeometry width="50" height="50" relative="1" as="geometry">
            <mxPoint x="600" y="300" as="sourcePoint" />
            <mxPoint x="650" y="250" as="targetPoint" />
          </mxGeometry>
        </mxCell>
        <mxCell id="Xdv-hqoRkiYaUYqbsFT--53" value="" style="endArrow=classic;html=1;rounded=0;exitX=0.75;exitY=1;exitDx=0;exitDy=0;entryX=0.25;entryY=0;entryDx=0;entryDy=0;" edge="1" parent="1" source="Xdv-hqoRkiYaUYqbsFT--39" target="Xdv-hqoRkiYaUYqbsFT--48">
          <mxGeometry width="50" height="50" relative="1" as="geometry">
            <mxPoint x="550" y="320" as="sourcePoint" />
            <mxPoint x="600" y="270" as="targetPoint" />
          </mxGeometry>
        </mxCell>
        <mxCell id="Xdv-hqoRkiYaUYqbsFT--54" value="" style="endArrow=classic;html=1;rounded=0;" edge="1" parent="1">
          <mxGeometry width="50" height="50" relative="1" as="geometry">
            <mxPoint x="490" y="270" as="sourcePoint" />
            <mxPoint x="780" y="353" as="targetPoint" />
            <Array as="points">
              <mxPoint x="630" y="320" />
              <mxPoint x="780" y="320" />
            </Array>
          </mxGeometry>
        </mxCell>
        <mxCell id="Xdv-hqoRkiYaUYqbsFT--55" value="" style="whiteSpace=wrap;html=1;rounded=0;shadow=0;comic=0;labelBackgroundColor=none;strokeWidth=1;fillColor=#000000;fontFamily=Verdana;fontSize=12;align=center;rotation=0;" vertex="1" parent="1">
          <mxGeometry x="230" y="480" width="400" height="10" as="geometry" />
        </mxCell>
        <mxCell id="Xdv-hqoRkiYaUYqbsFT--56" value="" style="endArrow=classic;html=1;rounded=0;exitX=0.75;exitY=1;exitDx=0;exitDy=0;entryX=0;entryY=0;entryDx=0;entryDy=0;" edge="1" parent="1" source="Xdv-hqoRkiYaUYqbsFT--45" target="Xdv-hqoRkiYaUYqbsFT--55">
          <mxGeometry width="50" height="50" relative="1" as="geometry">
            <mxPoint x="130" y="500" as="sourcePoint" />
            <mxPoint x="260" y="480" as="targetPoint" />
          </mxGeometry>
        </mxCell>
        <mxCell id="Xdv-hqoRkiYaUYqbsFT--57" value="" style="endArrow=classic;html=1;rounded=0;exitX=0.5;exitY=1;exitDx=0;exitDy=0;entryX=0.25;entryY=0;entryDx=0;entryDy=0;" edge="1" parent="1" source="Xdv-hqoRkiYaUYqbsFT--46" target="Xdv-hqoRkiYaUYqbsFT--55">
          <mxGeometry width="50" height="50" relative="1" as="geometry">
            <mxPoint x="400" y="650" as="sourcePoint" />
            <mxPoint x="450" y="600" as="targetPoint" />
          </mxGeometry>
        </mxCell>
        <mxCell id="Xdv-hqoRkiYaUYqbsFT--58" value="" style="endArrow=classic;html=1;rounded=0;exitX=0.5;exitY=1;exitDx=0;exitDy=0;entryX=0.554;entryY=0.037;entryDx=0;entryDy=0;entryPerimeter=0;" edge="1" parent="1" source="Xdv-hqoRkiYaUYqbsFT--47" target="Xdv-hqoRkiYaUYqbsFT--55">
          <mxGeometry width="50" height="50" relative="1" as="geometry">
            <mxPoint x="390" y="610" as="sourcePoint" />
            <mxPoint x="440" y="560" as="targetPoint" />
          </mxGeometry>
        </mxCell>
        <mxCell id="Xdv-hqoRkiYaUYqbsFT--59" value="" style="endArrow=classic;html=1;rounded=0;exitX=0.25;exitY=1;exitDx=0;exitDy=0;entryX=0.75;entryY=0;entryDx=0;entryDy=0;" edge="1" parent="1" source="Xdv-hqoRkiYaUYqbsFT--48" target="Xdv-hqoRkiYaUYqbsFT--55">
          <mxGeometry width="50" height="50" relative="1" as="geometry">
            <mxPoint x="510" y="650" as="sourcePoint" />
            <mxPoint x="560" y="600" as="targetPoint" />
          </mxGeometry>
        </mxCell>
        <mxCell id="Xdv-hqoRkiYaUYqbsFT--60" value="" style="endArrow=classic;html=1;rounded=0;exitX=0.25;exitY=1;exitDx=0;exitDy=0;entryX=1;entryY=0;entryDx=0;entryDy=0;" edge="1" parent="1" source="Xdv-hqoRkiYaUYqbsFT--49" target="Xdv-hqoRkiYaUYqbsFT--55">
          <mxGeometry width="50" height="50" relative="1" as="geometry">
            <mxPoint x="620" y="620" as="sourcePoint" />
            <mxPoint x="670" y="570" as="targetPoint" />
          </mxGeometry>
        </mxCell>
        <mxCell id="Xdv-hqoRkiYaUYqbsFT--61" value="Wykonywanie procedury kalibracyjnej na podstawie instrukcji producenta" style="rounded=1;whiteSpace=wrap;html=1;shadow=0;comic=0;labelBackgroundColor=none;strokeWidth=1;fontFamily=Verdana;fontSize=12;align=center;arcSize=50;" vertex="1" parent="1">
          <mxGeometry x="342.5" y="540" width="175" height="70" as="geometry" />
        </mxCell>
        <mxCell id="Xdv-hqoRkiYaUYqbsFT--62" value="" style="endArrow=classic;html=1;rounded=0;exitX=0.484;exitY=1.164;exitDx=0;exitDy=0;exitPerimeter=0;entryX=0.463;entryY=-0.005;entryDx=0;entryDy=0;entryPerimeter=0;" edge="1" parent="1" source="Xdv-hqoRkiYaUYqbsFT--55" target="Xdv-hqoRkiYaUYqbsFT--61">
          <mxGeometry width="50" height="50" relative="1" as="geometry">
            <mxPoint x="460" y="720" as="sourcePoint" />
            <mxPoint x="510" y="670" as="targetPoint" />
          </mxGeometry>
        </mxCell>
        <mxCell id="Xdv-hqoRkiYaUYqbsFT--63" value="" style="endArrow=classic;html=1;rounded=0;exitX=0.444;exitY=1.012;exitDx=0;exitDy=0;exitPerimeter=0;" edge="1" parent="1" source="Xdv-hqoRkiYaUYqbsFT--61">
          <mxGeometry width="50" height="50" relative="1" as="geometry">
            <mxPoint x="430" y="680" as="sourcePoint" />
            <mxPoint x="420" y="670" as="targetPoint" />
          </mxGeometry>
        </mxCell>
        <mxCell id="Xdv-hqoRkiYaUYqbsFT--64" value="Porównanie odczytów czujnika z wartościami referencyjnymi" style="rounded=1;whiteSpace=wrap;html=1;shadow=0;comic=0;labelBackgroundColor=none;strokeWidth=1;fontFamily=Verdana;fontSize=12;align=center;arcSize=50;" vertex="1" parent="1">
          <mxGeometry x="338" y="670" width="175" height="70" as="geometry" />
        </mxCell>
        <mxCell id="Xdv-hqoRkiYaUYqbsFT--65" value="" style="endArrow=classic;html=1;rounded=0;exitX=0.444;exitY=1.012;exitDx=0;exitDy=0;exitPerimeter=0;" edge="1" parent="1">
          <mxGeometry width="50" height="50" relative="1" as="geometry">
            <mxPoint x="422" y="740" as="sourcePoint" />
            <mxPoint x="422" y="780" as="targetPoint" />
          </mxGeometry>
        </mxCell>
        <mxCell id="Xdv-hqoRkiYaUYqbsFT--66" value="Wartości po kalibracji spełniają warunki wartości referencyjnych" style="rounded=1;whiteSpace=wrap;html=1;shadow=0;comic=0;labelBackgroundColor=none;strokeWidth=1;fontFamily=Verdana;fontSize=12;align=center;arcSize=50;" vertex="1" parent="1">
          <mxGeometry x="420" y="840" width="175" height="70" as="geometry" />
        </mxCell>
        <mxCell id="Xdv-hqoRkiYaUYqbsFT--67" value="" style="whiteSpace=wrap;html=1;rounded=0;shadow=0;comic=0;labelBackgroundColor=none;strokeWidth=1;fillColor=#000000;fontFamily=Verdana;fontSize=12;align=center;rotation=0;" vertex="1" parent="1">
          <mxGeometry x="353" y="780" width="147" height="10" as="geometry" />
        </mxCell>
        <mxCell id="Xdv-hqoRkiYaUYqbsFT--68" value="" style="endArrow=classic;html=1;rounded=0;exitX=0.25;exitY=1;exitDx=0;exitDy=0;" edge="1" parent="1" source="Xdv-hqoRkiYaUYqbsFT--67">
          <mxGeometry width="50" height="50" relative="1" as="geometry">
            <mxPoint x="200" y="930" as="sourcePoint" />
            <mxPoint x="340" y="590" as="targetPoint" />
            <Array as="points">
              <mxPoint x="390" y="840" />
              <mxPoint x="280" y="840" />
              <mxPoint x="280" y="590" />
            </Array>
          </mxGeometry>
        </mxCell>
        <mxCell id="Xdv-hqoRkiYaUYqbsFT--69" value="Jeśli dane z czujników nie spełniają wymogów ponawiamy kalibrację" style="shape=note;whiteSpace=wrap;html=1;rounded=0;shadow=0;comic=0;labelBackgroundColor=none;strokeWidth=1;fontFamily=Verdana;fontSize=12;align=center;size=20;" vertex="1" parent="1">
          <mxGeometry x="160" y="580" width="100" height="100" as="geometry" />
        </mxCell>
        <mxCell id="Xdv-hqoRkiYaUYqbsFT--70" value="" style="endArrow=classic;html=1;rounded=0;exitX=0.865;exitY=1.128;exitDx=0;exitDy=0;exitPerimeter=0;" edge="1" parent="1" source="Xdv-hqoRkiYaUYqbsFT--67">
          <mxGeometry width="50" height="50" relative="1" as="geometry">
            <mxPoint x="480" y="800" as="sourcePoint" />
            <mxPoint x="480" y="840" as="targetPoint" />
          </mxGeometry>
        </mxCell>
        <mxCell id="Xdv-hqoRkiYaUYqbsFT--71" style="edgeStyle=none;rounded=0;html=1;labelBackgroundColor=none;startArrow=none;startFill=0;startSize=5;endArrow=oval;endFill=0;endSize=5;jettySize=auto;orthogonalLoop=1;strokeWidth=1;fontFamily=Verdana;fontSize=12;dashed=1;" edge="1" parent="1">
          <mxGeometry relative="1" as="geometry">
            <mxPoint x="280" y="640" as="targetPoint" />
            <mxPoint x="260" y="630" as="sourcePoint" />
          </mxGeometry>
        </mxCell>
        <mxCell id="Xdv-hqoRkiYaUYqbsFT--72" value="Zapisanie danych kalibracyjnych&amp;nbsp;" style="rounded=1;whiteSpace=wrap;html=1;shadow=0;comic=0;labelBackgroundColor=none;strokeWidth=1;fontFamily=Verdana;fontSize=12;align=center;arcSize=50;" vertex="1" parent="1">
          <mxGeometry x="425" y="940" width="175" height="40" as="geometry" />
        </mxCell>
        <mxCell id="Xdv-hqoRkiYaUYqbsFT--73" value="" style="endArrow=classic;html=1;rounded=0;exitX=0.5;exitY=1;exitDx=0;exitDy=0;entryX=0.464;entryY=-0.006;entryDx=0;entryDy=0;entryPerimeter=0;" edge="1" parent="1" source="Xdv-hqoRkiYaUYqbsFT--66" target="Xdv-hqoRkiYaUYqbsFT--72">
          <mxGeometry width="50" height="50" relative="1" as="geometry">
            <mxPoint x="290" y="1020" as="sourcePoint" />
            <mxPoint x="340" y="970" as="targetPoint" />
          </mxGeometry>
        </mxCell>
        <mxCell id="Xdv-hqoRkiYaUYqbsFT--74" value="Potwierdzenie zakończenia kalibracji" style="rounded=1;whiteSpace=wrap;html=1;shadow=0;comic=0;labelBackgroundColor=none;strokeWidth=1;fontFamily=Verdana;fontSize=12;align=center;arcSize=50;" vertex="1" parent="1">
          <mxGeometry x="425" y="1010" width="175" height="40" as="geometry" />
        </mxCell>
        <mxCell id="Xdv-hqoRkiYaUYqbsFT--75" value="" style="endArrow=classic;html=1;rounded=0;exitX=0.5;exitY=1;exitDx=0;exitDy=0;entryX=0.5;entryY=0;entryDx=0;entryDy=0;" edge="1" parent="1" source="Xdv-hqoRkiYaUYqbsFT--72" target="Xdv-hqoRkiYaUYqbsFT--74">
          <mxGeometry width="50" height="50" relative="1" as="geometry">
            <mxPoint x="630" y="1050" as="sourcePoint" />
            <mxPoint x="680" y="1000" as="targetPoint" />
          </mxGeometry>
        </mxCell>
        <mxCell id="Xdv-hqoRkiYaUYqbsFT--76" value="" style="endArrow=classic;html=1;rounded=0;exitX=0.5;exitY=1;exitDx=0;exitDy=0;" edge="1" parent="1" source="Xdv-hqoRkiYaUYqbsFT--74">
          <mxGeometry width="50" height="50" relative="1" as="geometry">
            <mxPoint x="510" y="1100" as="sourcePoint" />
            <mxPoint x="513" y="1080" as="targetPoint" />
          </mxGeometry>
        </mxCell>
        <mxCell id="Xdv-hqoRkiYaUYqbsFT--77" value="Kontynuacja pomiarów przy użyciu skorygowanych wartości kalibracyjnych" style="rounded=1;whiteSpace=wrap;html=1;shadow=0;comic=0;labelBackgroundColor=none;strokeWidth=1;fontFamily=Verdana;fontSize=12;align=center;arcSize=50;" vertex="1" parent="1">
          <mxGeometry x="420" y="1080" width="190" height="60" as="geometry" />
        </mxCell>
        <mxCell id="Xdv-hqoRkiYaUYqbsFT--78" value="" style="shape=mxgraph.bpmn.shape;html=1;verticalLabelPosition=bottom;labelBackgroundColor=#ffffff;verticalAlign=top;perimeter=ellipsePerimeter;outline=end;symbol=terminate;rounded=0;shadow=0;comic=0;strokeWidth=1;fontFamily=Verdana;fontSize=12;align=center;" vertex="1" parent="1">
          <mxGeometry x="500" y="1170" width="40" height="40" as="geometry" />
        </mxCell>
        <mxCell id="Xdv-hqoRkiYaUYqbsFT--79" value="" style="endArrow=classic;html=1;rounded=0;exitX=0.5;exitY=1;exitDx=0;exitDy=0;" edge="1" parent="1">
          <mxGeometry width="50" height="50" relative="1" as="geometry">
            <mxPoint x="520.5" y="1140" as="sourcePoint" />
            <mxPoint x="520.5" y="1170" as="targetPoint" />
          </mxGeometry>
        </mxCell>
      </root>
    </mxGraphModel>
  </diagram>
</mxfile>
